<svg width="24.000000" height="24.000000" viewBox="0 0 24 24" fill="none" xmlns="http://www.w3.org/2000/svg" xmlns:xlink="http://www.w3.org/1999/xlink">
	<desc>
			Created with Pixso.
	</desc>
	<defs/>
	<path d="M22.675 0L1.32495 0C0.593018 0 0 0.592999 0 1.325L0 22.676C0 23.407 0.593018 24 1.32495 24L12.8201 24L12.8201 14.706L9.69189 14.706L9.69189 11.084L12.8201 11.084L12.8201 8.413C12.8201 5.313 14.7129 3.625 17.479 3.625C18.804 3.625 19.9419 3.724 20.2739 3.768L20.2739 7.008L18.356 7.009C16.8521 7.009 16.561 7.724 16.561 8.772L16.561 11.085L20.1479 11.085L19.6809 14.707L16.561 14.707L16.561 24L22.677 24C23.407 24 24 23.407 24 22.675L24 1.325C24 0.592999 23.407 0 22.675 0Z" fill="#FFFFFF" fill-opacity="1.000000" fill-rule="nonzero"/>
</svg>
