<svg width="24.000000" height="24.000000" viewBox="0 0 24 24" fill="none" xmlns="http://www.w3.org/2000/svg" xmlns:xlink="http://www.w3.org/1999/xlink">
	<desc>
			Created with Pixso.
	</desc>
	<defs/>
	<path d="M12 0C5.37305 0 0 5.372 0 12C0 17.084 3.16309 21.426 7.62695 23.174C7.52197 22.225 7.427 20.769 7.66895 19.733C7.88696 18.796 9.07593 13.768 9.07593 13.768C9.07593 13.768 8.71704 13.049 8.71704 11.986C8.71704 10.318 9.68408 9.072 10.8879 9.072C11.9109 9.072 12.406 9.841 12.406 10.762C12.406 11.791 11.751 13.33 11.4121 14.757C11.1289 15.951 12.011 16.926 13.189 16.926C15.322 16.926 16.9609 14.677 16.9609 11.431C16.9609 8.558 14.897 6.549 11.949 6.549C8.53491 6.549 6.53101 9.11 6.53101 11.756C6.53101 12.787 6.92798 13.894 7.42407 14.494C7.52197 14.613 7.53589 14.718 7.50708 14.839L7.17407 16.199C7.12109 16.419 7 16.466 6.77197 16.36C5.27295 15.662 4.33594 13.471 4.33594 11.711C4.33594 7.926 7.08594 4.449 12.2649 4.449C16.428 4.449 19.6631 7.416 19.6631 11.38C19.6631 15.516 17.0559 18.844 13.436 18.844C12.22 18.844 11.0769 18.213 10.686 17.466L9.93799 20.319C9.66699 21.362 8.93604 22.669 8.44604 23.465C9.57007 23.812 10.7629 24 12 24C18.627 24 24 18.627 24 12C24 5.372 18.627 0 12 0Z" fill="#FFFFFF" fill-opacity="1.000000" fill-rule="nonzero"/>
</svg>
