<svg width="24.000000" height="19.503998" viewBox="0 0 24 19.504" fill="none" xmlns="http://www.w3.org/2000/svg" xmlns:xlink="http://www.w3.org/1999/xlink">
	<desc>
			Created with Pixso.
	</desc>
	<defs/>
	<path d="M24 2.309C23.1169 2.701 22.168 2.965 21.1721 3.084C22.189 2.475 22.97 1.51 23.3369 0.360001C22.386 0.924 21.332 1.334 20.21 1.555C19.313 0.598 18.032 0 16.616 0C13.437 0 11.1011 2.966 11.8191 6.045C7.72803 5.84 4.1001 3.88 1.6709 0.901001C0.381104 3.114 1.00195 6.009 3.19409 7.475C2.38794 7.449 1.62793 7.228 0.965088 6.859C0.910889 9.14 2.5459 11.274 4.91406 11.749C4.22095 11.937 3.46191 11.981 2.68994 11.833C3.31592 13.789 5.13403 15.212 7.29004 15.252C5.21997 16.875 2.61206 17.6 0 17.292C2.17896 18.689 4.76807 19.504 7.5481 19.504C16.6899 19.504 21.855 11.783 21.543 4.858C22.5049 4.163 23.3401 3.296 24 2.309Z" fill="#FFFFFF" fill-opacity="1.000000" fill-rule="nonzero"/>
</svg>
